<?xml version="1.0" encoding="utf-8"?>
<!-- Generator: Adobe Illustrator 16.0.0, SVG Export Plug-In . SVG Version: 6.00 Build 0)  -->
<!DOCTYPE svg PUBLIC "-//W3C//DTD SVG 1.1//EN" "http://www.w3.org/Graphics/SVG/1.1/DTD/svg11.dtd">
<svg version="1.1" id="Layer_1" xmlns="http://www.w3.org/2000/svg" xmlns:xlink="http://www.w3.org/1999/xlink" x="0px" y="0px"
	 width="50px" height="50px" viewBox="0 0 50 50" enable-background="new 0 0 50 50" xml:space="preserve">
<g>
	<polygon fill="#A7A9AC" stroke="#A7A9AC" stroke-width="0.48" stroke-miterlimit="10" points="24.845,23.738 16.642,16.207
		16.642,5.683 24.845,12.007 	"/>
	<polygon fill="#A7A9AC" stroke="#A7A9AC" stroke-width="0.48" stroke-miterlimit="10" points="24.365,24.648 15.884,16.773
		7.693,16.777 14.474,24.648 	"/>
	<polygon fill="#A7A9AC" stroke="#A7A9AC" stroke-width="0.48" stroke-miterlimit="10" points="25.931,23.738 34.129,16.207
		34.129,5.683 25.931,12.007 	"/>
	<polygon fill="#A7A9AC" stroke="#A7A9AC" stroke-width="0.48" stroke-miterlimit="10" points="26.412,24.648 34.895,16.773
		43.082,16.777 36.301,24.648 	"/>
	<polygon fill="#A7A9AC" stroke="#A7A9AC" stroke-width="0.48" stroke-miterlimit="10" points="24.845,26.752 16.642,34.283
		16.642,44.807 24.845,38.479 	"/>
	<polygon fill="#A7A9AC" stroke="#A7A9AC" stroke-width="0.48" stroke-miterlimit="10" points="24.365,25.843 15.884,33.713
		7.693,33.713 14.474,25.843 	"/>
	<polygon fill="#A7A9AC" stroke="#A7A9AC" stroke-width="0.48" stroke-miterlimit="10" points="25.931,26.752 34.129,34.283
		34.129,44.807 25.931,38.479 	"/>
	<polygon fill="#A7A9AC" stroke="#A7A9AC" stroke-width="0.48" stroke-miterlimit="10" points="26.412,25.843 34.895,33.713
		43.082,33.713 36.301,25.843 	"/>
	<g>
		<polyline fill="#A7A9AC" stroke="#A7A9AC" stroke-width="0.48" stroke-miterlimit="10" points="25.666,2.718 21.564,6.039
			25.666,9.203 		"/>
		<path fill="#A7A9AC" stroke="#A7A9AC" stroke-width="0.48" stroke-miterlimit="10" d="M26.361,3.449"/>
		<polyline fill="#A7A9AC" stroke="#A7A9AC" stroke-width="0.48" stroke-miterlimit="10" points="25.404,2.718 29.508,6.039
			25.404,9.203 		"/>
	</g>
	<g>
		<polyline fill="#A7A9AC" stroke="#A7A9AC" stroke-width="0.48" stroke-miterlimit="10" points="25.666,41.088 21.564,44.408
			25.666,47.572 		"/>
		<path fill="#A7A9AC" stroke="#A7A9AC" stroke-width="0.48" stroke-miterlimit="10" d="M26.361,41.814"/>
		<polyline fill="#A7A9AC" stroke="#A7A9AC" stroke-width="0.48" stroke-miterlimit="10" points="25.404,41.088 29.508,44.408
			25.404,47.572 		"/>
	</g>
	<g>
		<polyline fill="#A7A9AC" stroke="#A7A9AC" stroke-width="0.48" stroke-miterlimit="10" points="39.449,25.23 42.77,29.33
			45.934,25.23 		"/>
		<path fill="#A7A9AC" stroke="#A7A9AC" stroke-width="0.48" stroke-miterlimit="10" d="M40.184,24.531"/>
		<polyline fill="#A7A9AC" stroke="#A7A9AC" stroke-width="0.48" stroke-miterlimit="10" points="39.449,25.492 42.77,21.39
			45.934,25.492 		"/>
	</g>
	<g>
		<polyline fill="#A7A9AC" stroke="#A7A9AC" stroke-width="0.48" stroke-miterlimit="10" points="3.931,25.23 7.255,29.33
			10.416,25.23 		"/>
		<path fill="#A7A9AC" stroke="#A7A9AC" stroke-width="0.48" stroke-miterlimit="10" d="M4.666,24.531"/>
		<polyline fill="#A7A9AC" stroke="#A7A9AC" stroke-width="0.48" stroke-miterlimit="10" points="3.931,25.492 7.255,21.39
			10.416,25.492 		"/>
	</g>
</g>
</svg>
