<?xml version="1.0" encoding="utf-8"?>
<!-- Generator: Adobe Illustrator 16.0.0, SVG Export Plug-In . SVG Version: 6.00 Build 0)  -->
<!DOCTYPE svg PUBLIC "-//W3C//DTD SVG 1.1//EN" "http://www.w3.org/Graphics/SVG/1.1/DTD/svg11.dtd">
<svg version="1.1" id="Layer_1" xmlns="http://www.w3.org/2000/svg" xmlns:xlink="http://www.w3.org/1999/xlink" x="0px" y="0px"
	 width="50px" height="50px" viewBox="0 0 50 50" enable-background="new 0 0 50 50" xml:space="preserve">
<path fill="#999999" d="M25,0.1c13.697,0,24.8,11.103,24.8,24.8S38.697,49.7,25,49.7c-13.697,0-24.8-11.104-24.8-24.8
	C0.255,11.226,11.326,0.155,25,0.1z M24.9,36.5h12.3c1.375,0.121,2.589-0.896,2.71-2.271c0.016-0.176,0.012-0.354-0.01-0.528V15.9
	c0.117-1.237-0.768-2.343-2-2.5H12.6c-1.239-0.016-2.302,0.877-2.5,2.1v18.1c0,2,0.9,2.9,2.9,2.9H24.9z"/>
<path fill="#999999" d="M28.6,26.2L27.7,27c-1.235,1.487-3.441,1.692-4.929,0.457c-0.132-0.109-0.257-0.229-0.372-0.357l-0.9-0.8
	c-0.386,0.419-0.823,0.788-1.3,1.101L14.9,32c-0.249,0.35-0.708,0.475-1.1,0.3c-0.479-0.132-0.76-0.628-0.627-1.107
	c0.041-0.147,0.119-0.283,0.227-0.393l0.3-0.3l5.8-5.3l0.5-0.4l-0.5-0.4l-6.9-6.2c-0.372-0.181-0.545-0.614-0.4-1
	c0.088-0.31,0.307-0.566,0.6-0.7c0.3-0.3,0.7-0.1,1,0.2l3.1,2.8l7,6.3c0.479,0.608,1.358,0.712,1.966,0.234
	c0.087-0.069,0.165-0.147,0.233-0.234l9.801-8.9l0.3-0.2c0.389-0.381,1.011-0.381,1.399,0c0.4,0.4,0.301,1-0.199,1.5l-5,4.5
	L30.1,24.8c0.785,0.817,1.62,1.586,2.5,2.3l3.9,3.5c0.441,0.418,0.461,1.114,0.043,1.556c-0.098,0.103-0.214,0.187-0.343,0.245
	c-0.413,0.089-0.841-0.066-1.101-0.4l-5.8-5.3L28.6,26.2z"/>
</svg>
