<?xml version="1.0" encoding="utf-8"?>
<!-- Generator: Adobe Illustrator 16.0.0, SVG Export Plug-In . SVG Version: 6.00 Build 0)  -->
<!DOCTYPE svg PUBLIC "-//W3C//DTD SVG 1.1//EN" "http://www.w3.org/Graphics/SVG/1.1/DTD/svg11.dtd">
<svg version="1.1" id="Layer_1" xmlns="http://www.w3.org/2000/svg" xmlns:xlink="http://www.w3.org/1999/xlink" x="0px" y="0px"
	 width="40px" height="40px" viewBox="5 5 40 40" enable-background="new 5 5 40 40" xml:space="preserve">
<path fill="#999999" d="M25.069,5.533c-10.939,0.044-19.796,8.901-19.84,19.84c0.04,8.482,5.427,16.018,13.44,18.8
	c1.04,0.16,1.359-0.479,1.359-0.96v-3.36c-5.52,1.12-6.72-2.72-6.72-2.72c-0.8-2.32-2.16-2.88-2.16-2.88
	c-1.84-1.12,0.16-1.12,0.16-1.12c1.263,0.176,2.379,0.91,3.04,2c1.68,3.04,4.64,2.16,5.68,1.68c0.066-1.02,0.492-1.983,1.2-2.719
	c-4.4-0.48-9.12-2.16-9.12-9.761c0.042-1.976,0.778-3.874,2.08-5.36c0.16-0.48-0.56-2.48,0.48-5.2c0,0,1.68-0.48,5.359,2
	c1.657-0.37,3.344-0.584,5.041-0.64c1.65-0.035,3.294,0.18,4.88,0.64c3.68-2.48,5.359-2,5.359-2c0.684,1.656,0.741,3.505,0.16,5.2
	c1.305,1.479,2.016,3.388,2,5.36c0,7.601-4.48,9.28-9.041,9.761c0.909,1.006,1.396,2.323,1.36,3.68v5.439
	c0,0.48,0.319,1.12,1.36,0.96c10.383-3.498,15.965-14.751,12.467-25.136C40.927,11.056,33.49,5.641,25.069,5.533"/>
</svg>
