<?xml version="1.0" encoding="utf-8"?>
<!-- Generator: Adobe Illustrator 16.0.0, SVG Export Plug-In . SVG Version: 6.00 Build 0)  -->
<!DOCTYPE svg PUBLIC "-//W3C//DTD SVG 1.1//EN" "http://www.w3.org/Graphics/SVG/1.1/DTD/svg11.dtd">
<svg version="1.1" id="Layer_1" xmlns="http://www.w3.org/2000/svg" xmlns:xlink="http://www.w3.org/1999/xlink" x="0px" y="0px"
	 width="40px" height="40px" viewBox="5 5 40 40" enable-background="new 5 5 40 40" xml:space="preserve">
<path fill="#999999" d="M37.96,38.34h-5.6v-8.881c0-2.158,0-4.879-2.88-4.879c-2.881,0-3.36,2.24-3.36,4.721v9.039h-5.6V20.18H25.8
	v2.48l0,0c1.058-1.907,3.102-3.052,5.281-2.96c5.601,0,6.719,3.76,6.719,8.64L37.96,38.34z M14.28,17.62
	c-1.812,0-3.28-1.469-3.28-3.28s1.468-3.28,3.28-3.28s3.28,1.469,3.279,3.281C17.56,16.151,16.091,17.62,14.28,17.62z M17,38.34
	h-5.6V20.18H17V38.34z M40.681,5.78h-32C7.135,5.735,5.845,6.952,5.8,8.498c0,0,0,0.001,0,0.002v32.641
	c0,1.59,1.29,2.879,2.88,2.879h32c1.502,0,2.72-1.218,2.72-2.719l0,0V8.5c0.045-1.458-1.101-2.675-2.559-2.72
	C40.789,5.778,40.734,5.778,40.681,5.78z"/>
</svg>
