<?xml version="1.0" encoding="utf-8"?>
<!-- Generator: Adobe Illustrator 16.0.0, SVG Export Plug-In . SVG Version: 6.00 Build 0)  -->
<!DOCTYPE svg PUBLIC "-//W3C//DTD SVG 1.1//EN" "http://www.w3.org/Graphics/SVG/1.1/DTD/svg11.dtd">
<svg version="1.1" id="Layer_1" xmlns="http://www.w3.org/2000/svg" xmlns:xlink="http://www.w3.org/1999/xlink" x="0px" y="0px"
	 width="50px" height="50px" viewBox="0 0 50 50" enable-background="new 0 0 50 50" xml:space="preserve">
<path fill="#999999" d="M25.1,0.7C11.426,0.755,0.355,11.826,0.3,25.5C0.35,36.104,7.083,45.521,17.1,49c1.3,0.2,1.7-0.6,1.7-1.2
	v-4.2C11.9,45,10.4,40.2,10.4,40.2c-1-2.9-2.7-3.601-2.7-3.601C5.4,35.2,7.9,35.2,7.9,35.2c1.578,0.22,2.974,1.138,3.8,2.5
	c2.1,3.8,5.8,2.7,7.1,2.1c0.082-1.274,0.614-2.479,1.5-3.399C14.8,35.8,8.9,33.7,8.9,24.2c0.052-2.47,0.972-4.842,2.6-6.7
	c0.2-0.6-0.7-3.1,0.6-6.5c0,0,2.1-0.6,6.7,2.5c2.071-0.463,4.18-0.73,6.3-0.8c2.062-0.043,4.119,0.226,6.1,0.8
	c4.6-3.1,6.7-2.5,6.7-2.5c0.855,2.07,0.926,4.381,0.199,6.5c1.631,1.849,2.521,4.235,2.5,6.7c0,9.5-5.6,11.6-11.3,12.2
	c1.137,1.258,1.745,2.904,1.7,4.6v6.8c0,0.601,0.4,1.4,1.7,1.2c12.979-4.373,19.957-18.44,15.584-31.42
	C44.923,7.603,35.627,0.835,25.1,0.7"/>
</svg>
