<?xml version="1.0" encoding="utf-8"?>
<!-- Generator: Adobe Illustrator 16.0.0, SVG Export Plug-In . SVG Version: 6.00 Build 0)  -->
<!DOCTYPE svg PUBLIC "-//W3C//DTD SVG 1.1//EN" "http://www.w3.org/Graphics/SVG/1.1/DTD/svg11.dtd">
<svg version="1.1" id="Layer_1" xmlns="http://www.w3.org/2000/svg" xmlns:xlink="http://www.w3.org/1999/xlink" x="0px" y="0px"
	 width="40px" height="40px" viewBox="5 5 40 40" enable-background="new 5 5 40 40" xml:space="preserve">
<path fill="#999999" d="M25,5.06c10.957,0,19.84,8.882,19.84,19.84S35.957,44.74,25,44.74c-10.958,0-19.84-8.884-19.84-19.84
	C5.204,13.961,14.061,5.104,25,5.06z M24.92,34.18h9.84c1.1,0.098,2.071-0.717,2.168-1.816c0.013-0.141,0.01-0.283-0.008-0.422V17.7
	c0.094-0.989-0.615-1.874-1.6-2H15.08c-0.992-0.013-1.842,0.702-2,1.68v14.479c0,1.6,0.72,2.32,2.32,2.32H24.92z"/>
<path fill="#999999" d="M27.879,25.939L27.16,26.58c-0.988,1.189-2.753,1.354-3.943,0.365c-0.105-0.088-0.206-0.183-0.298-0.285
	l-0.72-0.641c-0.309,0.336-0.659,0.631-1.04,0.881l-4.239,3.68c-0.199,0.279-0.566,0.379-0.88,0.24
	c-0.383-0.105-0.607-0.503-0.501-0.886c0.033-0.118,0.095-0.227,0.182-0.315l0.24-0.239l4.64-4.24l0.4-0.32l-0.4-0.32l-5.52-4.96
	c-0.298-0.145-0.436-0.491-0.32-0.8c0.07-0.248,0.245-0.453,0.479-0.561c0.24-0.24,0.56-0.08,0.8,0.16l2.48,2.24l5.6,5.039
	c0.383,0.487,1.086,0.57,1.574,0.188c0.068-0.055,0.131-0.117,0.186-0.188l7.842-7.119l0.239-0.16c0.312-0.305,0.809-0.305,1.12,0
	c0.318,0.32,0.24,0.8-0.16,1.2l-4,3.6l-1.84,1.68c0.627,0.654,1.297,1.268,2,1.84l3.119,2.799c0.354,0.335,0.369,0.893,0.035,1.246
	c-0.078,0.082-0.172,0.148-0.274,0.195c-0.331,0.072-0.673-0.053-0.88-0.32l-4.641-4.239L27.879,25.939z"/>
</svg>
