<?xml version="1.0" encoding="utf-8"?>
<!-- Generator: Adobe Illustrator 16.0.0, SVG Export Plug-In . SVG Version: 6.00 Build 0)  -->
<!DOCTYPE svg PUBLIC "-//W3C//DTD SVG 1.1//EN" "http://www.w3.org/Graphics/SVG/1.1/DTD/svg11.dtd">
<svg version="1.1" id="Layer_1" xmlns="http://www.w3.org/2000/svg" xmlns:xlink="http://www.w3.org/1999/xlink" x="0px" y="0px"
	 width="50px" height="50px" viewBox="0 0 50 50" enable-background="new 0 0 50 50" xml:space="preserve">
<path fill="#999999" d="M41.3,41.7h-7V30.6c0-2.699,0-6.1-3.6-6.1c-3.601,0-4.2,2.8-4.2,5.9v11.3h-7V19h6.6v3.1l0,0
	c1.322-2.383,3.877-3.815,6.601-3.7c7,0,8.399,4.7,8.399,10.8L41.3,41.7z M11.7,15.8c-2.265,0-4.1-1.836-4.1-4.1
	c0-2.264,1.835-4.1,4.1-4.1s4.1,1.836,4.099,4.101C15.799,13.964,13.964,15.8,11.7,15.8z M15.1,41.7h-7V19h7V41.7z M44.7,1h-40
	C2.768,0.944,1.156,2.465,1.1,4.397c0,0.001,0,0.002,0,0.003v40.8c0,1.988,1.612,3.6,3.6,3.6h40c1.878,0,3.399-1.522,3.399-3.399
	l0,0v-41c0.057-1.822-1.375-3.344-3.196-3.4C44.836,0.998,44.768,0.998,44.7,1z"/>
</svg>
